<?xml version="1.0" encoding="UTF-8"?>
<svg xmlns="http://www.w3.org/2000/svg" width="1200" height="900" viewBox="0 0 1200 900">
  <rect x="0" y="0" width="1200" height="900" fill="#0b1020"/>
  <g fill="none" stroke="#2f3b68" stroke-width="1">
    <rect x="60" y="60" width="1080" height="780"/>
  </g>
  <g fill="#dfe7ff" fill-opacity="0.1" stroke="#dfe7ff" stroke-opacity="0.85" stroke-width="1">
    <circle cx="88.267" cy="811.733" r="28.267"/>
    <circle cx="185.740" cy="811.733" r="28.267"/>
    <circle cx="283.213" cy="811.733" r="28.267"/>
    <circle cx="380.686" cy="811.733" r="28.267"/>
    <circle cx="478.159" cy="811.733" r="28.267"/>
    <circle cx="575.632" cy="811.733" r="28.267"/>
    <circle cx="673.105" cy="811.733" r="28.267"/>
    <circle cx="770.578" cy="811.733" r="28.267"/>
    <circle cx="868.051" cy="811.733" r="28.267"/>
    <circle cx="965.523" cy="811.733" r="28.267"/>
    <circle cx="1062.996" cy="811.733" r="28.267"/>
    <circle cx="137.004" cy="727.319" r="28.267"/>
    <circle cx="234.477" cy="727.319" r="28.267"/>
    <circle cx="331.949" cy="727.319" r="28.267"/>
    <circle cx="429.422" cy="727.319" r="28.267"/>
    <circle cx="526.895" cy="727.319" r="28.267"/>
    <circle cx="624.368" cy="727.319" r="28.267"/>
    <circle cx="721.841" cy="727.319" r="28.267"/>
    <circle cx="819.314" cy="727.319" r="28.267"/>
    <circle cx="916.787" cy="727.319" r="28.267"/>
    <circle cx="1014.260" cy="727.319" r="28.267"/>
    <circle cx="1111.733" cy="727.319" r="28.267"/>
    <circle cx="88.267" cy="642.905" r="28.267"/>
    <circle cx="185.740" cy="642.905" r="28.267"/>
    <circle cx="283.213" cy="642.905" r="28.267"/>
    <circle cx="380.686" cy="642.905" r="28.267"/>
    <circle cx="478.159" cy="642.905" r="28.267"/>
    <circle cx="575.632" cy="642.905" r="28.267"/>
    <circle cx="673.105" cy="642.905" r="28.267"/>
    <circle cx="770.578" cy="642.905" r="28.267"/>
    <circle cx="868.051" cy="642.905" r="28.267"/>
    <circle cx="965.523" cy="642.905" r="28.267"/>
    <circle cx="1062.996" cy="642.905" r="28.267"/>
    <circle cx="137.004" cy="558.491" r="28.267"/>
    <circle cx="234.477" cy="558.491" r="28.267"/>
    <circle cx="331.949" cy="558.491" r="28.267"/>
    <circle cx="429.422" cy="558.491" r="28.267"/>
    <circle cx="526.895" cy="558.491" r="28.267"/>
    <circle cx="624.368" cy="558.491" r="28.267"/>
    <circle cx="721.841" cy="558.491" r="28.267"/>
    <circle cx="819.314" cy="558.491" r="28.267"/>
    <circle cx="916.787" cy="558.491" r="28.267"/>
    <circle cx="1014.260" cy="558.491" r="28.267"/>
    <circle cx="1111.733" cy="558.491" r="28.267"/>
    <circle cx="88.267" cy="474.077" r="28.267"/>
    <circle cx="185.740" cy="474.077" r="28.267"/>
    <circle cx="278.339" cy="474.077" r="28.267"/>
    <circle cx="366.065" cy="474.077" r="28.267"/>
    <circle cx="785.199" cy="474.077" r="28.267"/>
    <circle cx="872.924" cy="474.077" r="28.267"/>
    <circle cx="965.523" cy="474.077" r="28.267"/>
    <circle cx="1062.996" cy="474.077" r="28.267"/>
    <circle cx="137.004" cy="389.663" r="28.267"/>
    <circle cx="234.477" cy="389.663" r="28.267"/>
    <circle cx="331.949" cy="389.663" r="28.267"/>
    <circle cx="429.422" cy="389.663" r="28.267"/>
    <circle cx="526.895" cy="389.663" r="28.267"/>
    <circle cx="624.368" cy="389.663" r="28.267"/>
    <circle cx="721.841" cy="389.663" r="28.267"/>
    <circle cx="819.314" cy="389.663" r="28.267"/>
    <circle cx="916.787" cy="389.663" r="28.267"/>
    <circle cx="1014.260" cy="389.663" r="28.267"/>
    <circle cx="1111.733" cy="389.663" r="28.267"/>
    <circle cx="88.267" cy="305.249" r="28.267"/>
    <circle cx="185.740" cy="305.249" r="28.267"/>
    <circle cx="283.213" cy="305.249" r="28.267"/>
    <circle cx="380.686" cy="305.249" r="28.267"/>
    <circle cx="478.159" cy="305.249" r="28.267"/>
    <circle cx="575.632" cy="305.249" r="28.267"/>
    <circle cx="673.105" cy="305.249" r="28.267"/>
    <circle cx="770.578" cy="305.249" r="28.267"/>
    <circle cx="868.051" cy="305.249" r="28.267"/>
    <circle cx="965.523" cy="305.249" r="28.267"/>
    <circle cx="1062.996" cy="305.249" r="28.267"/>
    <circle cx="137.004" cy="220.835" r="28.267"/>
    <circle cx="234.477" cy="220.835" r="28.267"/>
    <circle cx="331.949" cy="220.835" r="28.267"/>
    <circle cx="429.422" cy="220.835" r="28.267"/>
    <circle cx="526.895" cy="220.835" r="28.267"/>
    <circle cx="624.368" cy="220.835" r="28.267"/>
    <circle cx="721.841" cy="220.835" r="28.267"/>
    <circle cx="819.314" cy="220.835" r="28.267"/>
    <circle cx="916.787" cy="220.835" r="28.267"/>
    <circle cx="1014.260" cy="220.835" r="28.267"/>
    <circle cx="1111.733" cy="220.835" r="28.267"/>
    <circle cx="88.267" cy="136.421" r="28.267"/>
    <circle cx="185.740" cy="136.421" r="28.267"/>
    <circle cx="283.213" cy="136.421" r="28.267"/>
    <circle cx="380.686" cy="136.421" r="28.267"/>
    <circle cx="478.159" cy="136.421" r="28.267"/>
    <circle cx="575.632" cy="136.421" r="28.267"/>
    <circle cx="673.105" cy="136.421" r="28.267"/>
    <circle cx="770.578" cy="136.421" r="28.267"/>
    <circle cx="868.051" cy="136.421" r="28.267"/>
    <circle cx="965.523" cy="136.421" r="28.267"/>
    <circle cx="1062.996" cy="136.421" r="28.267"/>
  </g>
</svg>
